<svg id="Camada_1" data-name="Camada 1" xmlns="http://www.w3.org/2000/svg" viewBox="0 0 1981 317"><defs><style>.cls-1{font-size:294.66px;font-family:OdibeeSans-Regular, Odibee Sans;letter-spacing:0.07em;}.cls-1,.cls-8,.cls-9{fill:#1a77c4;}.cls-2{letter-spacing:0.06em;}.cls-3{letter-spacing:0.04em;}.cls-4{letter-spacing:0.11em;}.cls-5{letter-spacing:0.01em;}.cls-6{letter-spacing:0.09em;}.cls-7{letter-spacing:0.05em;}.cls-8{font-size:55.87px;font-family:Rajdhani-Regular, Rajdhani;letter-spacing:0.63em;}</style></defs><title>Prancheta 9</title><text class="cls-1" transform="translate(418.28 231.6) scale(1.11 1)">J<tspan class="cls-2" x="165.6" y="0">H</tspan><tspan class="cls-3" x="328.26" y="0">O</tspan><tspan class="cls-4" x="484.72" y="0">W </tspan><tspan class="cls-5" x="811.21" y="0">P</tspan><tspan class="cls-6" x="959.42" y="0">A</tspan><tspan class="cls-7" x="1113.24" y="0">E</tspan><tspan class="cls-4" x="1272.65" y="0">S</tspan></text><text class="cls-8" transform="translate(429.98 301.63)">MOBILE SOFTWARE DEVELOPER</text><path class="cls-9" d="M194.26,13.87h0a56.27,56.27,0,0,0-56.41,56.26V236.7a6.39,6.39,0,0,1-6.38,6.39H76.13a6.39,6.39,0,0,1-6.39-6.39l.43-108.52H52.76A38.62,38.62,0,0,0,14.14,166.8v82.28a49.48,49.48,0,0,0,49.61,49.48l91.3-.24a38.5,38.5,0,0,0,38.41-38.5Z"/><path class="cls-9" d="M212.1,298.41h0a56.26,56.26,0,0,0,56.4-56.25V75.59a6.39,6.39,0,0,1,6.39-6.39h55.33a6.39,6.39,0,0,1,6.39,6.39l-.43,108.52h17.41a38.62,38.62,0,0,0,38.62-38.62V63.21A49.48,49.48,0,0,0,342.6,13.73L251.3,14a38.49,38.49,0,0,0-38.4,38.5Z"/></svg>